<svg width="70" height="48" viewBox="0 0 70 48" fill="none" xmlns="http://www.w3.org/2000/svg">
<g clip-path="url(#clip0_1941_2855)">
<rect width="70" height="48" rx="4" fill="white"/>
<rect width="70" height="48" rx="6" fill="white"/>
<g clip-path="url(#clip1_1941_2855)">
<path fill-rule="evenodd" clip-rule="evenodd" d="M20.4588 10.6952C15.7267 13.678 12.5024 17.2247 10.9267 21.1805C9.9608 23.6053 9.75167 27.0317 10.4809 28.4834C11.3612 30.2358 13.6789 29.831 17.1445 27.3198C17.6736 26.9363 18.0884 26.6045 18.0662 26.5823C18.0439 26.5601 17.686 26.6483 17.2709 26.7782C16.1973 27.1141 14.9629 27.1055 14.2714 26.7574C13.1633 26.1995 12.8188 25.3947 12.8287 23.3866C12.8348 22.1634 12.868 21.9087 13.1218 21.1385C14.0885 18.205 16.7845 14.5292 20.4483 11.1493C21.1337 10.517 21.6606 10.0023 21.6193 10.0054C21.578 10.0085 21.0558 10.3188 20.4588 10.6952ZM29.5996 11.703C24.9748 12.5053 20.5016 15.8319 16.7865 21.2319C16.3838 21.8172 16.0543 22.3452 16.0543 22.4054C16.0543 22.4656 16.5969 21.9838 17.2601 21.3348C19.5809 19.0634 21.0127 17.8673 22.9801 16.5563C25.6226 14.7952 27.6199 14.1108 29.8141 14.2143C31.0586 14.273 31.7524 14.5194 32.352 15.1156C32.9485 15.7086 33.0364 15.9684 33.0246 17.102C33.016 17.9242 32.9635 18.2586 32.7561 18.8136C32.6143 19.193 32.5272 19.5013 32.5625 19.4986C32.6572 19.4915 33.3972 18.5469 34.0399 17.6129C35.4684 15.5367 35.9536 13.8857 35.4559 12.7942C35.2188 12.2743 34.6438 11.9127 33.7028 11.6918C32.8549 11.4929 30.7784 11.4985 29.5996 11.703ZM25.1129 19.0417C24.0542 19.2757 22.0751 20.264 20.681 21.2546C20.0489 21.7039 20.0549 21.7097 20.9138 21.4829C21.8405 21.2382 23.1727 21.2518 23.7505 21.5121C24.7253 21.951 25.2471 22.8556 25.359 24.3009C25.5117 26.2723 24.5886 28.5929 22.6043 31.2261C21.6399 32.5058 18.8337 35.3675 17.1831 36.7543C16.4776 37.347 15.8542 37.8756 15.7978 37.9288C15.4795 38.2295 17.857 36.8923 19.0462 36.102C21.6778 34.3528 23.9672 32.2419 25.4191 30.2259C26.7113 28.4318 27.7544 26.0095 28.0563 24.102C28.1951 23.225 28.1921 21.0375 28.0513 20.4808C27.9251 19.9818 27.4582 19.3634 27.0506 19.1556C26.6179 18.9349 25.8105 18.8875 25.1129 19.0417Z" fill="#367D5B"/>
<path d="M32.2652 29.0725C32.9718 28.2231 33.779 27.6898 34.754 27.4284C35.7637 27.1577 37.0545 27.2893 37.9607 27.7553C38.4326 27.9979 39.5517 28.9271 39.5526 29.077C39.553 29.1435 39.3451 29.3678 39.0906 29.5755L38.6278 29.9531L38.1319 29.4911C37.3265 28.7409 37.0854 28.6495 35.9105 28.6495C34.9809 28.6495 34.8401 28.6755 34.4139 28.9249C33.8571 29.2509 33.2912 29.85 32.9647 30.4588C32.7665 30.8283 32.7295 31.0511 32.7302 31.8685C32.7311 33.0294 32.939 33.5526 33.6637 34.2179C34.3345 34.8337 35.0498 35.1363 35.8368 35.1376C36.615 35.1388 37.1128 34.9474 37.6416 34.4438C38.0391 34.0651 38.5619 33.1313 38.4644 32.974C38.4358 32.928 37.9303 32.8904 37.341 32.8904H36.2696V32.2773V31.6641H38.1812H40.0929L40.0241 32.3028C39.8668 33.7638 39.4752 34.6112 38.5819 35.4243C36.5068 37.313 33.059 36.5262 31.7032 33.8547C31.4065 33.2699 31.3954 33.1984 31.3954 31.8685C31.3954 30.3084 31.4899 30.0047 32.2652 29.0725Z" fill="black"/>
<path d="M41.7082 36.2627V31.8685V27.4744H42.3752H43.0423V31.8685V36.2627H42.3752H41.7082Z" fill="black"/>
<path fill-rule="evenodd" clip-rule="evenodd" d="M45.0946 31.8688V36.2629H45.8129H46.5312V34.5428C46.5312 33.5966 46.5586 32.7952 46.5921 32.7618C46.6819 32.6725 47.0955 33.1774 48.2669 34.8067L49.3139 36.2629H50.1348C50.7651 36.2629 50.9375 36.2333 50.8772 36.1352C50.834 36.065 50.254 35.2647 49.5884 34.357C48.9229 33.4492 48.3783 32.6604 48.3783 32.6042C48.3783 32.5479 48.515 32.4544 48.6821 32.3965C48.8492 32.3384 49.1931 32.0845 49.4465 31.8322C50.6396 30.6441 50.3464 28.6304 48.8702 27.8743C48.3842 27.6252 47.3646 27.4792 46.0951 27.4766L45.0946 27.4746V31.8688ZM46.5312 30.1315V31.46H47.0067C48.1283 31.46 48.7887 30.9716 48.7887 30.1424C48.7887 29.2356 48.2617 28.8031 47.157 28.8031H46.5312V30.1315Z" fill="black"/>
<path fill-rule="evenodd" clip-rule="evenodd" d="M55.4171 27.3778C53.801 27.6474 52.2234 29.1023 51.7943 30.7187C51.5424 31.6681 51.6631 33.0175 52.0744 33.8496C52.6614 35.0371 53.8184 35.977 55.1032 36.3102C58.6123 37.2204 61.8349 33.9684 60.7833 30.578C60.5256 29.7472 60.1937 29.242 59.4397 28.5329C58.7586 27.8924 58.2148 27.606 57.3206 27.4173C56.572 27.2593 56.177 27.2511 55.4171 27.3778ZM54.9727 28.8495C54.361 29.133 53.6281 29.8347 53.3457 30.407C53.2135 30.6751 53.1425 31.0868 53.1167 31.7358C53.0834 32.5681 53.1086 32.7402 53.3352 33.2334C53.6479 33.9135 54.3104 34.5768 54.997 34.8971C55.7227 35.2356 56.9379 35.2357 57.6677 34.8973C58.2942 34.6066 58.9666 33.9445 59.2711 33.3181C59.6123 32.6161 59.6488 31.482 59.3554 30.6932C59.0426 29.8523 58.1668 28.9853 57.4012 28.7588C56.5746 28.5144 55.6183 28.55 54.9727 28.8495Z" fill="black"/>
</g>
</g>
<rect x="0.5" y="0.5" width="69" height="47" rx="3.5" stroke="#E5E6EA"/>
<defs>
<clipPath id="clip0_1941_2855">
<rect width="70" height="48" rx="4" fill="white"/>
</clipPath>
<clipPath id="clip1_1941_2855">
<rect width="51" height="28" fill="white" transform="translate(10 10)"/>
</clipPath>
</defs>
</svg>
