<svg width="98" height="98" viewBox="0 0 98 98" fill="none" xmlns="http://www.w3.org/2000/svg">
<path d="M51.8304 0.27847C53.1083 0.42448 54.3905 0.523767 55.6596 0.7165C59.4873 1.28594 63.2653 2.10652 66.8115 3.67905C69.5116 4.87488 72.2262 6.10572 74.7381 7.64029C79.4885 10.545 83.6865 14.27 87.1372 18.6422C90.3676 22.6833 92.9408 27.2093 94.762 32.0532C96.9807 37.9666 97.9434 44.1034 97.7655 50.4052C97.6233 56.3401 96.3684 62.1955 94.0661 67.6666C92.264 71.9401 89.8717 75.9393 86.9593 79.5474C84.1775 83.0109 80.9291 86.0712 77.3069 88.6409C73.4855 91.3564 69.298 93.5146 64.8699 95.0508C54.6392 98.5901 43.5216 98.6142 33.2756 95.1194C30.0596 94.0241 26.966 92.5973 24.0448 90.8618C20.964 89.0133 18.0159 86.9428 15.5055 84.3468C13.5873 82.3625 11.6632 80.3563 9.98569 78.1734C8.44383 76.1643 7.15432 73.9464 5.8867 71.749C4.1129 68.6667 2.8759 65.3406 1.93649 61.9181C1.12141 59.0437 0.593201 56.0955 0.359617 53.1167C0.330442 52.7078 0.261883 52.3019 0.213745 51.896V46.057C0.251672 45.8191 0.31002 45.5825 0.326066 45.3431C0.652818 40.5875 1.73081 36.0057 3.42292 31.5524C6.48279 23.6122 11.5614 16.6097 18.156 11.238C25.0552 5.60409 33.3602 1.96256 42.1752 0.706269C43.3961 0.525217 44.6288 0.414258 45.857 0.277008L51.8304 0.27847ZM48.9655 3.76813C23.9048 3.76813 3.69716 24.0518 3.70737 49.2547C3.71758 73.9537 23.931 93.8958 48.3354 94.1849C74.1342 94.4901 93.9217 73.9917 94.2645 49.4051C94.6175 24.0387 73.7273 3.74915 48.9655 3.76813Z" fill="#0E2859"/>
<path d="M7.1967 48.1187C7.08147 43.1178 8.05151 38.2557 9.92597 33.595C11.2222 30.4006 12.9393 27.3939 15.0315 24.6548C17.4938 21.4017 20.3354 18.5385 23.4468 15.922C24.5642 14.9831 25.7808 15.0459 26.4737 16.0928C26.9113 16.7601 26.8763 17.4492 26.2942 17.9909C24.7407 19.451 23.1186 20.8469 21.6088 22.3537C17.6032 26.35 14.5778 30.9683 12.7004 36.3444C11.0156 41.1627 10.4701 46.1081 10.8041 51.1834C11.0516 55.309 11.9166 59.3739 13.37 63.2424C14.406 65.964 15.7739 68.547 17.4427 70.9328C19.2596 73.5092 21.4067 75.8356 23.829 77.8522C26.1611 79.7919 28.6914 81.4794 31.3779 82.8866C34.113 84.3467 36.9604 85.4944 39.977 86.1937C46.2626 87.6538 52.5482 87.6042 58.7945 85.982C67.0497 83.7868 74.3419 78.9074 79.5243 72.1111C82.5114 68.1526 84.7089 63.6554 85.9966 58.865C86.8208 55.8353 86.9988 52.7428 87.2555 49.6503C87.2774 49.3831 87.2949 49.1159 87.343 48.8531C87.5501 47.7376 88.2314 47.1608 89.232 47.247C90.1904 47.3258 90.806 47.9931 90.7695 49.1115C90.7185 50.6388 90.5989 52.1661 90.4399 53.6875C89.9483 58.5505 88.6228 63.2923 86.5218 67.7045C85.1018 70.6597 83.2983 73.4144 81.158 75.8971C78.0335 79.5561 74.3167 82.488 70.1929 84.903C64.4324 88.2788 58.2139 90.2835 51.5388 90.7434C46.922 91.0574 42.381 90.52 37.9129 89.2994C35.0903 88.5284 32.345 87.5371 29.7922 86.1397C27.5896 84.9352 25.5036 83.4999 23.4381 82.0646C20.9947 80.3665 18.9248 78.242 17.0022 75.9818C14.9572 73.5804 13.2073 70.9422 11.7902 68.1235C10.3475 65.288 9.24393 62.2921 8.50226 59.1979C7.64745 55.5725 7.11939 51.8974 7.1967 48.1187Z" fill="#0E2859"/>
<path d="M17.6727 49.1685C17.5779 53.4028 18.5479 57.6093 20.3305 61.6275C22.0677 65.5416 24.5879 69.0578 27.7356 71.959C30.8832 74.8603 34.5915 77.0851 38.6315 78.4961C39.0219 78.6306 39.3938 78.8136 39.7387 79.0407C40.3951 79.4787 40.5833 80.2263 40.3032 81.0498C40.0713 81.7287 39.4907 82.1872 38.7264 82.0617C37.8669 81.9218 37.0268 81.6816 36.2232 81.3462C32.6946 79.8627 29.3906 77.9763 26.4192 75.554C23.8471 73.4862 21.6212 71.0207 19.8258 68.2505C15.6232 61.6962 13.8961 54.4905 14.2287 46.7695C14.4183 42.3804 15.5546 38.2163 17.4101 34.2273C19.3947 29.9402 22.2463 26.1119 25.7846 22.9845C28.1634 20.8724 30.8213 19.0983 33.6836 17.7121C38.0291 15.5949 42.6036 14.5144 47.413 14.2326C51.3238 14.0019 55.1063 14.6254 58.845 15.6518C63.8538 17.0168 68.4624 19.5644 72.2841 23.0808C75.5807 26.1069 78.3049 29.7033 80.326 33.6973C81.0116 35.0347 80.5142 35.8713 79.5252 36.3853C78.65 36.8379 77.7106 36.3721 77.2117 35.3457C75.2614 31.3362 72.5248 27.943 69.1464 25.0505C65.1772 21.6137 60.3698 19.2899 55.2128 18.3151C49.4698 17.2142 43.7925 17.5587 38.2756 19.5649C34.0832 21.0665 30.263 23.4543 27.0751 26.5659C23.8871 29.6775 21.4062 33.4399 19.801 37.5972C18.3417 41.2777 17.6186 45.2091 17.6727 49.1685V49.1685Z" fill="#0E2859"/>
<path d="M62.6829 66.4037H58.5548V52.2407H42.6766V66.3949H38.5762V34.9443H42.6518V48.8722H58.5387V34.9049C59.8516 34.9049 61.1061 34.8947 62.362 34.921C62.4831 34.921 62.6538 35.1356 62.7033 35.2816C62.7403 35.4967 62.7472 35.7158 62.7238 35.9328C62.7238 45.771 62.7238 55.6087 62.7238 65.4459C62.7223 65.7539 62.6975 66.0606 62.6829 66.4037Z" fill="#0E2859"/>
</svg>
