<svg width="200" height="50" viewBox="0 0 200 50" fill="none" xmlns="http://www.w3.org/2000/svg">
<path d="M25.8084 0.639281C26.4473 0.712286 27.0884 0.761929 27.7229 0.858296C29.6368 1.14302 31.5258 1.55331 33.2989 2.33957C34.6489 2.93748 36.0062 3.55291 37.2622 4.32019C39.6374 5.77255 41.7364 7.63504 43.4617 9.82113C45.0769 11.8417 46.3635 14.1047 47.2741 16.5267C48.3835 19.4834 48.8648 22.5518 48.7759 25.7027C48.7048 28.6701 48.0773 31.5978 46.9262 34.3333C46.0251 36.4701 44.829 38.4697 43.3728 40.2738C41.9819 42.0055 40.3577 43.5357 38.5466 44.8205C36.6359 46.1782 34.5421 47.2573 32.3281 48.0254C27.2127 49.7951 21.6539 49.8071 16.5309 48.0597C14.9229 47.5121 13.3761 46.7987 11.9155 45.9309C10.3751 45.0067 8.90109 43.9715 7.64587 42.6734C6.68676 41.6813 5.72473 40.6782 4.88597 39.5868C4.11504 38.5822 3.47029 37.4733 2.83648 36.3745C1.94958 34.8334 1.33108 33.1703 0.861372 31.4591C0.453833 30.0219 0.189728 28.5478 0.0729359 27.0584C0.0583487 26.854 0.0240688 26.651 0 26.448V23.5286C0.0189633 23.4096 0.0481374 23.2913 0.0561604 23.1716C0.219537 20.7938 0.758533 18.5029 1.60459 16.2762C3.13452 12.3062 5.67382 8.80491 8.97111 6.11905C12.4207 3.30209 16.5732 1.48133 20.9807 0.853181C21.5912 0.762654 22.2075 0.707175 22.8216 0.63855L25.8084 0.639281ZM24.3759 2.38411C11.8455 2.38411 1.74171 12.526 1.74681 25.1274C1.75192 37.4769 11.8586 47.448 24.0608 47.5925C36.9602 47.7451 46.854 37.4959 47.0254 25.2026C47.2019 12.5194 36.7568 2.37462 24.3759 2.38411Z" fill="white"/>
<path d="M3.49142 24.5594C3.4338 22.059 3.91882 19.6279 4.85605 17.2976C5.50419 15.7003 6.36271 14.197 7.4088 12.8275C8.63996 11.2009 10.0608 9.76929 11.6165 8.46104C12.1752 7.99161 12.7834 8.023 13.1299 8.54645C13.3487 8.88008 13.3312 9.22466 13.0402 9.49551C12.2634 10.2256 11.4524 10.9235 10.6975 11.6769C8.69466 13.675 7.18197 15.9842 6.24329 18.6723C5.40088 21.0814 5.1281 23.5541 5.29512 26.0918C5.41888 28.1545 5.85135 30.187 6.57806 32.1212C7.09607 33.482 7.78004 34.7735 8.61443 35.9664C9.52286 37.2547 10.5964 38.4178 11.8076 39.4261C12.9736 40.396 14.2388 41.2397 15.582 41.9434C16.9495 42.6734 18.3733 43.2472 19.8816 43.5969C23.0244 44.327 26.1672 44.3021 29.2903 43.4911C33.4179 42.3934 37.064 39.9537 39.6552 36.5556C41.1488 34.5764 42.2475 32.3277 42.8914 29.9326C43.3035 28.4177 43.3924 26.8715 43.5208 25.3252C43.5318 25.1916 43.5405 25.058 43.5646 24.9266C43.6681 24.3688 44.0088 24.0805 44.5091 24.1235C44.9883 24.163 45.2961 24.4966 45.2778 25.0558C45.2523 25.8194 45.1925 26.5831 45.113 27.3438C44.8672 29.7753 44.2045 32.1462 43.1539 34.3523C42.4439 35.8299 41.5422 37.2072 40.4721 38.4486C38.9098 40.2781 37.0514 41.7441 34.9895 42.9516C32.1093 44.6394 29 45.6418 25.6625 45.8718C23.354 46.0287 21.0835 45.7601 18.8495 45.1497C17.4382 44.7643 16.0656 44.2686 14.7892 43.5699C13.6879 42.9676 12.6449 42.25 11.6121 41.5323C10.3904 40.6833 9.35546 39.6211 8.39417 38.4909C7.37164 37.2903 6.49672 35.9711 5.78817 34.5618C5.06683 33.1441 4.51503 31.6461 4.14419 30.099C3.71679 28.2863 3.45276 26.4488 3.49142 24.5594Z" fill="white"/>
<path d="M8.72947 25.0843C8.68206 27.2014 9.16709 29.3047 10.0584 31.3138C10.927 33.2708 12.1871 35.0289 13.7609 36.4796C15.3347 37.9302 17.1889 39.0426 19.2089 39.7481C19.4041 39.8153 19.59 39.9068 19.7625 40.0204C20.0907 40.2394 20.1848 40.6132 20.0447 41.0249C19.9288 41.3644 19.6385 41.5937 19.2563 41.5309C18.8266 41.4609 18.4065 41.3409 18.0047 41.1731C16.2404 40.4314 14.5884 39.4882 13.1027 38.277C11.8167 37.2432 10.7038 36.0104 9.80601 34.6253C7.70472 31.3481 6.84116 27.7453 7.00746 23.8848C7.10227 21.6903 7.67044 19.6082 8.59819 17.6137C9.59047 15.4702 11.0163 13.556 12.7854 11.9923C13.9748 10.9363 15.3038 10.0492 16.7349 9.35608C18.9077 8.2975 21.1949 7.75726 23.5996 7.61636C25.555 7.50101 27.4463 7.81274 29.3156 8.32597C31.82 9.00847 34.1243 10.2823 36.0352 12.0405C37.6835 13.5535 39.0456 15.3517 40.0562 17.3487C40.399 18.0174 40.1502 18.4357 39.6557 18.6927C39.2181 18.919 38.7484 18.6861 38.499 18.1729C37.5238 16.1682 36.1555 14.4715 34.4663 13.0253C32.4817 11.3069 30.078 10.145 27.4995 9.65758C24.628 9.10712 21.7894 9.27942 19.0309 10.2825C16.9347 11.0333 15.0247 12.2272 13.4307 13.783C11.8367 15.3388 10.5962 17.22 9.79361 19.2986C9.06399 21.1389 8.70244 23.1046 8.72947 25.0843V25.0843Z" fill="white"/>
<path d="M31.2345 33.7019H29.1704V26.6204H21.2314V33.6975H19.1812V17.9722H21.219V24.9362H29.1624V17.9525C29.8188 17.9525 30.4461 17.9474 31.0741 17.9605C31.1346 17.9605 31.2199 18.0679 31.2447 18.1409C31.2632 18.2484 31.2666 18.358 31.255 18.4665C31.255 23.3855 31.255 28.3044 31.255 33.223C31.2542 33.377 31.2418 33.5303 31.2345 33.7019Z" fill="white"/>
<path d="M70.364 27.0754V38.9292H64.7997C64.7939 38.7949 64.7822 38.6664 64.7822 38.5379C64.7822 29.5855 64.7798 20.6327 64.7749 11.6793C64.7749 11.3347 64.8588 11.223 65.2169 11.2274C66.7962 11.2459 68.3765 11.2459 69.9577 11.2274C70.2735 11.2274 70.3698 11.3055 70.3684 11.6326C70.3567 15.1916 70.3611 18.7513 70.3611 22.3103V22.779C70.5317 22.787 70.674 22.7987 70.8155 22.7987C74.4965 22.7987 78.182 22.7987 81.8594 22.8075C82.2131 22.8075 82.305 22.7082 82.3043 22.3592C82.2919 18.8126 82.2963 15.2653 82.297 11.718C82.297 11.2362 82.297 11.2347 82.7726 11.2347C84.3516 11.2347 85.9314 11.2435 87.5134 11.2274C87.8394 11.2274 87.9189 11.3245 87.9189 11.6414C87.9111 20.6185 87.9089 29.5957 87.9123 38.5729V38.9219H82.2963V27.5718C82.2963 27.0754 82.2963 27.0754 81.8054 27.0754H70.364V27.0754Z" fill="white"/>
<path d="M166.224 20.2617C166.233 20.0617 166.244 19.9463 166.244 19.831C166.244 18.9688 166.25 18.1059 166.244 17.2437C166.244 17.0298 166.302 16.9414 166.531 16.9422C168.208 16.9495 169.886 16.9495 171.564 16.9422C171.782 16.9422 171.882 17.0101 171.863 17.2342C171.854 17.3306 171.863 17.4284 171.863 17.5262V38.9291H166.255V35.4752C165.724 36.0724 165.242 36.6762 164.695 37.2135C163.296 38.5889 161.569 39.2124 159.632 39.2868C158.208 39.3488 156.787 39.1072 155.463 38.578C153.818 37.9209 152.473 36.8521 151.368 35.4665C149.38 32.9726 148.811 30.0824 148.975 26.9877C149.044 25.6853 149.267 24.412 149.753 23.1914C150.246 21.9364 150.97 20.7846 151.886 19.7952C153.039 18.5446 154.413 17.6365 156.031 17.1429C158.122 16.5056 160.246 16.4275 162.337 17.1254C163.917 17.6525 165.137 18.6958 166.087 20.0573L166.224 20.2617ZM166.274 28.0003C166.236 27.5294 166.212 27.0563 166.158 26.5869C165.884 24.1777 163.964 22.0766 161.591 21.6225C160.051 21.3261 158.591 21.5546 157.277 22.4548C155.933 23.3747 155.076 24.6238 154.797 26.2437C154.354 28.8369 154.693 31.2008 156.794 33.0515C157.671 33.8335 158.777 34.3108 159.947 34.4123C161.289 34.54 162.526 34.1984 163.635 33.4355C164.405 32.9198 165.04 32.2259 165.486 31.4125C166.06 30.351 166.274 29.2019 166.274 28.001V28.0003Z" fill="white"/>
<path d="M130.858 27.9331V38.9189H125.187V38.5327C125.187 29.5823 125.185 20.6313 125.181 11.6799C125.181 11.3361 125.264 11.2258 125.618 11.2273C128.901 11.2405 132.178 11.22 135.457 11.2412C137.29 11.2529 139.089 11.4952 140.782 12.2632C141.708 12.6912 142.545 13.2912 143.248 14.0314C144.042 14.8505 144.689 15.7763 145.042 16.864C145.698 18.8855 145.553 20.8793 144.731 22.8337C144.293 23.8791 143.688 24.8201 142.851 25.5662C142.271 26.0787 141.623 26.5095 140.926 26.8467C139.317 27.6279 137.578 27.9009 135.802 27.9272C134.296 27.9499 132.789 27.9316 131.28 27.9323L130.858 27.9331ZM130.858 23.5674C130.919 23.5951 130.941 23.6133 130.962 23.6133C132.746 23.5987 134.536 23.6623 136.31 23.5447C138.21 23.4184 139.459 22.1642 139.71 20.2923C140.04 17.8313 138.736 15.7032 136.052 15.6003C134.368 15.5361 132.679 15.5755 130.992 15.5704C130.945 15.5792 130.9 15.5957 130.858 15.6193V23.5674Z" fill="white"/>
<path d="M180.404 49.3324C181.44 46.9087 182.462 44.5258 183.476 42.14C183.95 41.0244 184.415 39.905 184.869 38.7817C184.925 38.6265 184.925 38.4566 184.869 38.3013C184.162 36.5091 183.437 34.7241 182.722 32.9347C182.205 31.6404 181.701 30.3409 181.182 29.0472C180.335 26.9301 179.476 24.8202 178.629 22.7045C178.13 21.4554 177.649 20.199 177.154 18.9484C176.901 18.3074 176.635 17.6716 176.352 16.9773C176.498 16.9627 176.6 16.9437 176.7 16.9437C178.571 16.9437 180.442 16.9437 182.317 16.9386C182.535 16.9386 182.652 16.9853 182.734 17.2218C183.281 18.79 183.849 20.3508 184.412 21.9124C185.063 23.7135 185.725 25.5116 186.369 27.3148C186.906 28.8092 187.43 30.308 187.963 31.8032C188.036 32.0171 188.135 32.2244 188.255 32.5113C188.441 32.0485 188.602 31.6666 188.748 31.279C189.268 29.8919 189.778 28.5048 190.302 27.1228C190.997 25.2867 191.703 23.455 192.403 21.6204C192.968 20.1369 193.527 18.6506 194.1 17.1671C194.137 17.0715 194.274 16.9481 194.366 16.9481C196.2 16.9364 198.034 16.9408 199.869 16.9437C199.914 16.9539 199.958 16.9701 200 16.9919C199.946 17.1423 199.902 17.2898 199.843 17.4299C199.272 18.7815 198.7 20.1321 198.125 21.4817C197.435 23.0966 196.733 24.7078 196.047 26.3249C194.977 28.8465 193.918 31.3724 192.85 33.8948C191.872 36.2051 190.891 38.5143 189.908 40.8222C189.032 42.8737 188.157 44.9241 187.282 46.9736C186.99 47.665 186.698 48.3607 186.415 49.055C186.343 49.2324 186.27 49.3623 186.033 49.3616C184.21 49.3514 182.387 49.3558 180.563 49.3543C180.51 49.3504 180.457 49.3431 180.404 49.3324Z" fill="white"/>
<path d="M119.081 16.943V17.4219C119.081 18.6362 119.081 19.8505 119.081 21.0648C119.081 21.5452 119.081 21.5459 118.615 21.5459C117.291 21.5459 115.967 21.5459 114.643 21.5459H114.173C114.165 21.7043 114.152 21.8321 114.152 21.9599C114.152 25.397 114.142 28.834 114.163 32.2711C114.166 32.6913 114.256 33.1062 114.428 33.4896C114.684 34.0466 115.252 34.1853 115.809 34.2109C116.767 34.2547 117.726 34.2693 118.685 34.2627C119.037 34.2627 119.14 34.3671 119.135 34.7168C119.117 35.9915 119.129 37.2668 119.127 38.5422C119.127 38.6612 119.116 38.7795 119.11 38.8825C119.066 38.9102 119.046 38.9336 119.027 38.9336C117.195 38.9277 115.357 39.0737 113.535 38.7912C112.096 38.5678 110.808 38.0137 109.832 36.8836C109.188 36.1367 108.843 35.2432 108.712 34.2795C108.597 33.5001 108.533 32.7142 108.519 31.9265C108.498 28.6355 108.51 25.3444 108.51 22.0533V21.5423C107.835 21.5423 107.205 21.5248 106.577 21.5496C106.242 21.5627 106.147 21.4605 106.152 21.1232C106.172 19.7515 106.16 18.3797 106.16 16.9619H108.498V11.5596H114.14V16.9422L119.081 16.943Z" fill="white"/>
<path d="M100.785 38.9342H95.2423V16.975H100.785V38.9342Z" fill="white"/>
<path d="M97.9822 14.7637C96.0289 14.7637 94.6271 13.3087 94.6111 11.3325C94.5965 9.45623 96.1974 7.90122 98.0529 7.95086C99.9361 7.99978 101.396 9.47375 101.408 11.3821C101.423 13.2415 99.8595 14.8637 97.9822 14.7637Z" fill="white"/>
</svg>
