<svg width="70" height="48" viewBox="0 0 70 48" fill="none" xmlns="http://www.w3.org/2000/svg">
<g clip-path="url(#clip0_2911_231)">
<g clip-path="url(#clip1_2911_231)">
<mask id="mask0_2911_231" style="mask-type:luminance" maskUnits="userSpaceOnUse" x="-17" y="-9" width="104" height="222">
<path d="M-16.0119 -8.67047H86.0841V212.028H-16.0119V-8.67047Z" fill="white"/>
</mask>
<g mask="url(#mask0_2911_231)">
<path d="M18.1118 20.0396H16.8951C16.8054 20.0396 16.7195 20.0738 16.6561 20.1347C16.5927 20.1956 16.5571 20.2781 16.557 20.3642V27.6381C16.557 27.7242 16.5927 27.8068 16.6561 27.8677C16.7194 27.9286 16.8054 27.9629 16.8951 27.9629H18.1118C18.2014 27.9628 18.2874 27.9286 18.3507 27.8677C18.4141 27.8068 18.4497 27.7242 18.4497 27.6381V20.3642C18.4497 20.2782 18.414 20.1956 18.3507 20.1347C18.2873 20.0739 18.2014 20.0396 18.1118 20.0396Z" fill="black"/>
</g>
<mask id="mask1_2911_231" style="mask-type:luminance" maskUnits="userSpaceOnUse" x="-17" y="-9" width="104" height="222">
<path d="M-16.0119 -8.67096H86.0842V212.027H-16.0119V-8.67096Z" fill="white"/>
</mask>
<g mask="url(#mask1_2911_231)">
<path d="M15.1713 26.1438H11.8927V20.3638C11.8927 20.2777 11.8571 20.1951 11.7937 20.1343C11.7303 20.0734 11.6444 20.0392 11.5548 20.0391H10.338C10.2483 20.0392 10.1624 20.0734 10.0991 20.1343C10.0357 20.1951 10.0001 20.2777 10 20.3638V27.6376C10 27.7237 10.0357 27.8063 10.099 27.8672C10.1624 27.9281 10.2483 27.9623 10.338 27.9624H15.1713C15.2609 27.9623 15.3469 27.9281 15.4102 27.8672C15.4736 27.8063 15.5092 27.7237 15.5092 27.6376V26.4685C15.5092 26.3824 15.4735 26.2999 15.4102 26.239C15.3468 26.1781 15.2609 26.1439 15.1713 26.1438Z" fill="black"/>
</g>
<mask id="mask2_2911_231" style="mask-type:luminance" maskUnits="userSpaceOnUse" x="-17" y="-9" width="104" height="222">
<path d="M-16.0119 -8.67096H86.0841V212.027H-16.0119V-8.67096Z" fill="white"/>
</mask>
<g mask="url(#mask2_2911_231)">
<path d="M33.2539 21.8575C33.3435 21.8575 33.4294 21.8232 33.4928 21.7624C33.5562 21.7015 33.5918 21.6189 33.5919 21.5328V20.3638C33.5918 20.2777 33.5562 20.1951 33.4928 20.1343C33.4294 20.0734 33.3435 20.0392 33.2539 20.0391H28.4206C28.331 20.0392 28.245 20.0734 28.1817 20.1343C28.1183 20.1951 28.0827 20.2777 28.0826 20.3638V27.6376C28.0827 27.7237 28.1183 27.8063 28.1816 27.8672C28.245 27.9281 28.3309 27.9623 28.4206 27.9624H33.2539C33.3435 27.9623 33.4295 27.9281 33.4928 27.8672C33.5562 27.8063 33.5918 27.7237 33.5919 27.6376V26.4685C33.5918 26.3824 33.5562 26.2999 33.4928 26.239C33.4294 26.1781 33.3435 26.1439 33.2539 26.1438H29.9754V24.9099H33.2539C33.3435 24.9098 33.4294 24.8756 33.4928 24.8147C33.5562 24.7539 33.5918 24.6713 33.5919 24.5852V23.4161C33.5918 23.3301 33.5562 23.2475 33.4928 23.1866C33.4294 23.1258 33.3435 23.0915 33.2539 23.0915H29.9754V21.8575H33.2539Z" fill="black"/>
</g>
<mask id="mask3_2911_231" style="mask-type:luminance" maskUnits="userSpaceOnUse" x="-17" y="-9" width="104" height="222">
<path d="M-16.0119 -8.67047H86.0841V212.028H-16.0119V-8.67047Z" fill="white"/>
</mask>
<g mask="url(#mask3_2911_231)">
<path d="M26.4602 20.0396H25.2435C25.1538 20.0396 25.0679 20.0738 25.0045 20.1347C24.9411 20.1956 24.9055 20.2781 24.9054 20.3642V24.5731L21.7211 20.199C21.6309 20.0749 21.4963 20.0396 21.3468 20.0396C21.3279 20.0365 21.3087 20.0396 21.2889 20.0396H20.0722C19.9826 20.0396 19.8966 20.0739 19.8333 20.1347C19.7699 20.1956 19.7343 20.2782 19.7342 20.3642V27.6381C19.7343 27.7242 19.7699 27.8068 19.8332 27.8677C19.8966 27.9286 19.9825 27.9628 20.0722 27.9629H21.2889C21.3785 27.9629 21.4645 27.9286 21.5279 27.8677C21.5913 27.8068 21.6269 27.7242 21.627 27.6381V23.2423L24.9469 27.8028C24.9587 27.8192 24.972 27.834 24.9858 27.848C25.043 27.9126 25.1259 27.9565 25.2196 27.9629H25.2806H26.4602C26.5498 27.9628 26.6357 27.9286 26.6991 27.8677C26.7625 27.8068 26.7981 27.7242 26.7981 27.6381V20.3642C26.798 20.2782 26.7624 20.1956 26.6991 20.1347C26.6357 20.0739 26.5498 20.0396 26.4602 20.0396Z" fill="black"/>
</g>
<mask id="mask4_2911_231" style="mask-type:luminance" maskUnits="userSpaceOnUse" x="-17" y="-9" width="104" height="222">
<path d="M-16.0119 -8.67047H86.0842V212.028H-16.0119V-8.67047Z" fill="white"/>
</mask>
<g mask="url(#mask4_2911_231)">
<path d="M59.1552 31H37.6139C37.3899 31 37.175 30.9145 37.0165 30.7623C36.8581 30.61 36.7691 30.4036 36.7691 30.1883V17.8116C36.7691 17.5963 36.8581 17.3899 37.0166 17.2377C37.175 17.0855 37.3899 17 37.6139 17H59.1552C59.3792 17 59.5941 17.0855 59.7525 17.2377C59.911 17.3899 60 17.5963 60 17.8116V30.1883C60 30.4036 59.911 30.61 59.7526 30.7623C59.5941 30.9145 59.3792 31 59.1552 31Z" fill="#08BF5B"/>
</g>
<mask id="mask5_2911_231" style="mask-type:luminance" maskUnits="userSpaceOnUse" x="-17" y="-9" width="104" height="222">
<path d="M-16.0119 -8.67096H86.0841V212.027H-16.0119V-8.67096Z" fill="white"/>
</mask>
<g mask="url(#mask5_2911_231)">
<path d="M43.6048 22.4592C43.6048 21.9875 43.2583 21.6269 42.7866 21.6269H41.776V23.2915H42.7866C43.2583 23.2915 43.6048 22.9309 43.6048 22.4592ZM45.1448 22.4592C45.1448 23.6891 44.1149 24.6785 42.7866 24.6785H41.776V26.4951C41.776 26.6154 41.6745 26.7129 41.5493 26.7129H40.4628C40.3375 26.7129 40.236 26.6154 40.236 26.4951V20.4577C40.236 20.3373 40.3375 20.2398 40.4628 20.2398H42.7866C44.1149 20.2398 45.1448 21.2293 45.1448 22.4592Z" fill="white"/>
</g>
<mask id="mask6_2911_231" style="mask-type:luminance" maskUnits="userSpaceOnUse" x="-17" y="-9" width="104" height="222">
<path d="M-16.0118 -8.67047H86.0843V212.028H-16.0118V-8.67047Z" fill="white"/>
</mask>
<g mask="url(#mask6_2911_231)">
<path d="M49.4194 24.4015C49.4194 23.708 48.9382 23.2733 48.274 23.2733C47.6099 23.2733 47.1286 23.708 47.1286 24.4015C47.1286 25.095 47.6099 25.5296 48.274 25.5296C48.9382 25.5296 49.4194 25.0951 49.4194 24.4015ZM50.8632 22.2043V26.5987C50.8632 26.662 50.8098 26.7133 50.7439 26.7133H49.5387C49.4729 26.7133 49.4194 26.662 49.4194 26.5987V26.2788C49.1018 26.63 48.6301 26.8428 47.9854 26.8428C46.7243 26.8428 45.6849 25.7794 45.6849 24.4015C45.6849 23.0236 46.7243 21.9602 47.9854 21.9602C48.6301 21.9602 49.1018 22.1729 49.4194 22.5243V22.2043C49.4194 22.1409 49.4729 22.0897 49.5387 22.0897H50.7439C50.8098 22.0897 50.8632 22.1409 50.8632 22.2043Z" fill="white"/>
</g>
<mask id="mask7_2911_231" style="mask-type:luminance" maskUnits="userSpaceOnUse" x="-17" y="-9" width="104" height="222">
<path d="M-16.0119 -8.67047H86.0841V212.028H-16.0119V-8.67047Z" fill="white"/>
</mask>
<g mask="url(#mask7_2911_231)">
<path d="M55.6677 22.2104L54.5597 24.8919L53.414 22.2083C53.399 22.1733 53.3735 22.1433 53.3408 22.1222C53.308 22.1012 53.2695 22.0899 53.23 22.0899H52.0013C51.9164 22.0899 51.8586 22.1725 51.8909 22.2481L53.8024 26.7249L53.1057 28.4108C53.0747 28.4861 53.1324 28.5679 53.2166 28.5679H54.446C54.4858 28.5678 54.5247 28.5563 54.5577 28.5348C54.5906 28.5133 54.6161 28.4828 54.6308 28.4472L57.1927 22.2467C57.2238 22.1715 57.1661 22.0899 57.0818 22.0899H55.8526C55.8128 22.0899 55.7739 22.1014 55.7409 22.1229C55.7079 22.1444 55.6824 22.1749 55.6677 22.2104Z" fill="white"/>
</g>
</g>
</g>
<defs>
<clipPath id="clip0_2911_231">
<rect width="70" height="48" rx="4" fill="white"/>
</clipPath>
<clipPath id="clip1_2911_231">
<rect width="50" height="14" fill="white" transform="translate(10 17)"/>
</clipPath>
</defs>
</svg>
