<svg width="70" height="48" viewBox="0 0 70 48" fill="none" xmlns="http://www.w3.org/2000/svg">
<g clip-path="url(#clip0_856_187)">
<rect width="70" height="48" rx="4" fill="white"/>
<g clip-path="url(#clip1_856_187)">
<path d="M31.9915 30.8459V17.3542C31.9915 17.2202 32.0447 17.0917 32.1395 16.9969C32.2343 16.9021 32.3628 16.8489 32.4968 16.8489H37.0497C38.2386 16.9158 39.3568 17.4352 40.1748 18.3005C40.9928 19.1659 41.4486 20.3115 41.4486 21.5023C41.4486 22.6931 40.9928 23.8387 40.1748 24.704C39.3568 25.5694 38.2386 26.0888 37.0497 26.1557H33.7552V30.8385C33.7552 30.9725 33.702 31.1011 33.6072 31.1958C33.5125 31.2906 33.3839 31.3439 33.2499 31.3439H32.4993C32.3653 31.3439 32.2367 31.2906 32.142 31.1958C32.0472 31.1011 31.994 30.9725 31.994 30.8385L31.9915 30.8459ZM33.7552 24.3282H37.03C37.407 24.3296 37.7806 24.2564 38.1292 24.1129C38.4778 23.9693 38.7945 23.7582 39.0611 23.4917C39.3284 23.2279 39.5404 22.9135 39.6849 22.5669C39.8293 22.2203 39.9033 21.8484 39.9025 21.4728C39.9006 20.7149 39.5981 19.9886 39.0615 19.4534C38.5248 18.9181 37.7978 18.6175 37.0398 18.6175H33.7552V24.3282Z" fill="#EE4D2D"/>
<path d="M53.3084 35.3938L56.7549 29.4722L52.6264 22.7092C52.5986 22.6631 52.5836 22.6105 52.5828 22.5566C52.582 22.5028 52.5955 22.4497 52.622 22.4028C52.6484 22.3559 52.6868 22.3169 52.7333 22.2897C52.7797 22.2625 52.8326 22.2481 52.8864 22.248H54.5569L57.8759 27.6325L61.082 22.248H62.625C62.6784 22.2484 62.7309 22.2628 62.777 22.2899C62.8231 22.317 62.8613 22.3557 62.8876 22.4022C62.914 22.4487 62.9276 22.5014 62.9272 22.5548C62.9267 22.6083 62.9122 22.6607 62.885 22.7068L55.1162 35.8452H53.5684C53.5151 35.845 53.4627 35.8309 53.4166 35.8041C53.3705 35.7773 53.3322 35.7389 53.3057 35.6927C53.2791 35.6465 53.2651 35.5941 53.2651 35.5408C53.2652 35.4875 53.2792 35.4351 53.3059 35.3889L53.3084 35.3938Z" fill="#EE4D2D"/>
<path d="M49.4375 30.7773V29.9997L49.1922 30.2131C48.3493 30.9149 47.2864 31.2979 46.1897 31.2949C44.9828 31.3034 43.8218 30.8326 42.9618 29.9859C42.1017 29.1392 41.6128 27.9858 41.6025 26.7789C41.6025 24.2891 43.6606 22.334 46.1897 22.334C47.2795 22.3313 48.3358 22.7106 49.175 23.406L49.4203 23.6194V22.8418C49.4203 22.7078 49.4735 22.5792 49.5683 22.4845C49.6631 22.3897 49.7916 22.3365 49.9256 22.3365H50.9755V31.2949H49.9281C49.7941 31.2949 49.6655 31.2417 49.5708 31.1469C49.476 31.0522 49.4227 30.9236 49.4227 30.7896L49.4375 30.7773ZM46.1749 24.0045C45.4279 23.994 44.707 24.2792 44.1694 24.798C43.6317 25.3168 43.321 26.0271 43.3049 26.774C43.3049 27.5384 43.6086 28.2716 44.1491 28.8121C44.6896 29.3526 45.4228 29.6563 46.1872 29.6563C46.9516 29.6563 47.6848 29.3526 48.2253 28.8121C48.7658 28.2716 49.0695 27.5384 49.0695 26.774C49.0625 26.4017 48.982 26.0345 48.8325 25.6935C48.683 25.3525 48.4675 25.0444 48.1985 24.787C47.9294 24.5296 47.6121 24.3279 47.2649 24.1936C46.9176 24.0593 46.5472 23.9951 46.1749 24.0045Z" fill="#EE4D2D"/>
<path d="M25.1843 16.8219H9.92402C9.70087 16.8219 9.48685 16.7332 9.32906 16.5755C9.17127 16.4177 9.08262 16.2037 9.08262 15.9805C9.08193 15.8807 9.12028 15.7845 9.18948 15.7126C9.25868 15.6406 9.35325 15.5986 9.45303 15.5954H23.1409C23.2424 15.5954 23.3398 15.5551 23.4115 15.4833C23.4833 15.4115 23.5236 15.3142 23.5236 15.2127V13.8341C23.5237 13.7173 23.4995 13.6018 23.4526 13.4949C23.4056 13.388 23.3369 13.2921 23.2509 13.2132C23.1648 13.1343 23.0633 13.0741 22.9527 13.0366C22.8421 12.9991 22.725 12.985 22.6086 12.9952L8.74901 14.2217C8.27056 14.2629 7.82511 14.4826 7.5011 14.837C7.17709 15.1915 6.99822 15.6548 7 16.1351V29.455C7 29.9625 7.20159 30.4491 7.56041 30.808C7.91924 31.1668 8.4059 31.3684 8.91336 31.3684H25.1843C25.6918 31.3684 26.1785 31.1668 26.5373 30.808C26.8961 30.4491 27.0977 29.9625 27.0977 29.455V18.7426C27.0977 18.2352 26.8961 17.7485 26.5373 17.3897C26.1785 17.0308 25.6918 16.8293 25.1843 16.8293" fill="#EE4D2D"/>
<path d="M20.4696 26.8376C20.4151 27.3152 20.2325 27.7691 19.941 28.1513C19.6495 28.5335 19.26 28.8297 18.8138 29.0085C18.2539 29.2359 17.6512 29.3388 17.0476 29.3103C16.2099 29.2831 15.3883 29.072 14.6412 28.6921C14.2991 28.5041 13.9762 28.2831 13.6772 28.0322C13.6085 27.9758 13.5741 27.9243 13.6404 27.8335L14.0304 27.2644C14.0428 27.244 14.0598 27.2268 14.0801 27.2141C14.1003 27.2014 14.1232 27.1935 14.1469 27.1911C14.1707 27.1888 14.1947 27.1919 14.217 27.2004C14.2394 27.2088 14.2595 27.2224 14.2757 27.2399L14.3959 27.3331C15.155 27.942 16.0857 28.298 17.0574 28.3511C18.3502 28.3339 19.2872 27.7575 19.454 26.8793C19.638 25.8981 18.8555 25.0542 17.3469 24.5857C16.6971 24.3689 16.0599 24.1158 15.4384 23.8277C14.3869 23.2145 13.8963 22.4123 13.9666 21.4213C14.0721 20.0501 15.3526 19.0222 16.9765 19.0173C17.7107 19.0189 18.4371 19.1674 19.1131 19.454C19.4041 19.5806 19.6839 19.7316 19.9496 19.9053C19.9711 19.916 19.9901 19.9313 20.0051 19.9501C20.02 19.9689 20.0307 19.9908 20.0363 20.0142C20.042 20.0376 20.0424 20.062 20.0375 20.0855C20.0327 20.1091 20.0228 20.1313 20.0084 20.1506C19.9446 20.2561 19.7631 20.5554 19.6773 20.678C19.6208 20.7614 19.5522 20.7737 19.4516 20.7099C18.7249 20.2244 17.8725 19.961 16.9986 19.9519C15.8898 19.974 15.0533 20.629 14.9993 21.5268C14.9846 22.3363 15.6052 22.925 16.9225 23.3764C19.6405 24.2447 20.6707 25.2628 20.4745 26.8621" fill="white"/>
</g>
</g>
<rect x="0.5" y="0.5" width="69" height="47" rx="3.5" stroke="#E5E6EA"/>
<defs>
<clipPath id="clip0_856_187">
<rect width="70" height="48" rx="4" fill="white"/>
</clipPath>
<clipPath id="clip1_856_187">
<rect width="55.9291" height="22.85" fill="white" transform="translate(7 13)"/>
</clipPath>
</defs>
</svg>
