<svg width="70" height="48" viewBox="0 0 70 48" fill="none" xmlns="http://www.w3.org/2000/svg">
<g clip-path="url(#clip0_1113_299)">
<rect width="70" height="48" rx="4" fill="white"/>
<rect width="70" height="48" rx="6" fill="white"/>
<path d="M44.8101 6H25.1905C20.6747 6 17 9.67406 17 14.1905V33.8095C17 38.3259 20.6747 42 25.1905 42H44.8101C49.3266 42 53 38.3253 53 33.8095V14.1905C53 9.67406 49.3266 6 44.8101 6Z" fill="white"/>
<path d="M44.8707 7.39746H25.1305C21.4177 7.39746 18.3973 10.4178 18.3973 14.13V33.8702C18.3973 37.583 21.4177 40.6027 25.1305 40.6027H44.8707C48.5822 40.6027 51.6032 37.5823 51.6032 33.8702V14.13C51.6032 10.4178 48.5822 7.39746 44.8707 7.39746Z" fill="#295DAA"/>
<path d="M31.555 21.1408H29.8352C29.3309 21.1408 28.6772 21.4976 28.4884 21.9726L28.6609 21.062H26.5592L25.6255 26.2972H27.7297L28.3109 22.9831H30.5745C30.5745 22.9831 30.2851 24.6242 30.1564 25.3591C30.0277 26.0941 30.527 26.2728 30.7732 26.2728H31.8738L32.5912 22.2013C32.5318 21.6176 32.1381 21.1408 31.555 21.1408Z" fill="white"/>
<path d="M25.0443 21.062L24.6494 23.3087L26.248 21.062H25.0443Z" fill="white"/>
<path d="M27.5397 12.8623H20.501L20.1954 14.5972H22.652L21.6677 20.1867H23.7869L24.7762 14.5972H27.2335L27.5397 12.8623Z" fill="white"/>
<path d="M28.9959 18.4705L29.3046 16.7213H27.4185L27.1117 18.4705H28.9959ZM26.0249 20.1866C25.4418 20.1866 25.0493 19.7091 25.1518 19.1254L25.693 16.0644C25.7943 15.4814 26.3574 15.0039 26.9386 15.0039H30.3895C30.9726 15.0039 31.3663 15.4814 31.26 16.0644L30.7226 19.1254C30.6189 19.7091 30.0577 20.1866 29.4752 20.1866H26.0249Z" fill="white"/>
<path d="M39.9074 18.4702L40.2167 16.721H42.9484L43.2515 15.0049H39.7374C39.1543 15.0049 38.59 15.4811 38.4881 16.0642L37.9488 19.1252C37.8457 19.7088 38.2388 20.1857 38.8237 20.1857H42.2403L42.5415 18.4702H39.9074Z" fill="white"/>
<path d="M35.6121 18.4703H33.2998L33.9098 15.0044H32.0674L31.3431 19.1253C31.24 19.709 31.6325 20.1858 32.2155 20.1858H34.0116C34.5947 20.1858 35.0715 19.839 35.4484 19.3903C35.4484 19.3903 35.654 19.9902 35.9496 20.1246C36.2471 20.2608 37.1457 20.2289 37.1457 20.2289L38.0682 15.005H36.2246L35.6121 18.4703Z" fill="white"/>
<path d="M48.8966 15.0298H47.178C46.6724 15.0298 46.1843 15.3873 45.995 15.8616L46.4899 13.0469H44.5526L43.2939 20.1856H45.2332L45.8162 16.8728H47.9179C47.9179 16.8728 47.6292 18.5127 47.5005 19.2488C47.3705 19.9819 47.871 20.1619 48.1142 20.1619H49.0528L49.7703 16.0904C49.8721 15.5067 49.4803 15.0298 48.8966 15.0298Z" fill="white"/>
<path d="M41.9884 28.039C41.2047 28.039 40.676 27.3941 40.8129 26.611L41.5397 22.4964C41.6766 21.7102 42.4334 21.0684 43.2202 21.0684H47.6098C48.3916 21.0684 48.9234 21.7102 48.7847 22.4964L48.0585 26.611C47.9198 27.3934 47.1642 28.039 46.3799 28.039H41.9884ZM46.0781 26.1154L46.6318 22.9913H43.5202L42.9677 26.1154H46.0781Z" fill="white"/>
<path d="M37.7319 26.1156H34.6178L35.1697 22.9915H40.2174L40.5504 21.0679H34.8709C34.0848 21.0679 33.3311 21.7097 33.193 22.4959L32.4661 26.6105C32.3287 27.3929 32.8555 28.0385 33.6404 28.0385H38.0325C38.8181 28.0385 39.5743 27.3936 39.7111 26.6105L40.1555 24.0851H38.0882L37.7319 26.1156Z" fill="white"/>
<path d="M33.4199 30.5049L30.7745 35.9575H29.0959L28.8965 32.6572L27.2941 35.9575H25.6062L25.2837 30.5049H26.4786L26.6873 34.7814L28.7453 30.5049H29.9589L30.1676 34.7814L32.2256 30.5049H33.4199Z" fill="#FDDB00"/>
<path d="M38.4169 35.9575H37.2507L38.4075 30.5049H39.5737L38.4169 35.9575Z" fill="#FDDB00"/>
<path d="M40.3323 35.9575H39.1662L40.323 30.5049H41.4891L40.3323 35.9575Z" fill="#FDDB00"/>
<path d="M48.3929 35.9575H47.4542C47.018 35.9575 46.7149 35.915 46.5437 35.8294C46.3731 35.7438 46.2875 35.5719 46.2875 35.3126C46.2875 35.167 46.3093 34.9964 46.3537 34.8008L47.2643 30.5049H48.4304L48.1367 31.861H49.2653L49.0472 32.8472H47.938L47.6061 34.4027C47.5742 34.5608 47.5586 34.6651 47.5586 34.7158C47.5586 34.8233 47.5949 34.8926 47.6674 34.9245C47.7398 34.9564 47.8867 34.972 48.1086 34.972H48.6016L48.3929 35.9575Z" fill="#FDDB00"/>
<path d="M33.4199 30.5049L30.7745 35.9575H29.0959L28.8965 32.6572L27.2941 35.9575H25.6062L25.2837 30.5049H26.4786L26.6873 34.7814L28.7453 30.5049H29.9589L30.1676 34.7814L32.2256 30.5049H33.4199Z" fill="#FDDB00"/>
<path d="M38.4169 35.9575H37.2507L38.4075 30.5049H39.5737L38.4169 35.9575Z" fill="#FDDB00"/>
<path d="M40.3323 35.9575H39.1662L40.323 30.5049H41.4891L40.3323 35.9575Z" fill="#FDDB00"/>
<path d="M48.3929 35.9575H47.4542C47.018 35.9575 46.7149 35.915 46.5437 35.8294C46.3731 35.7438 46.2875 35.5719 46.2875 35.3126C46.2875 35.167 46.3093 34.9964 46.3537 34.8008L47.2643 30.5049H48.4304L48.1367 31.861H49.2653L49.0472 32.8472H47.938L47.6061 34.4027C47.5742 34.5608 47.5586 34.6651 47.5586 34.7158C47.5586 34.8233 47.5949 34.8926 47.6674 34.9245C47.7398 34.9564 47.8867 34.972 48.1086 34.972H48.6016L48.3929 35.9575Z" fill="#FDDB00"/>
<path d="M33.4199 30.5049L30.7745 35.9575H29.0959L28.8965 32.6572L27.2941 35.9575H25.6062L25.2837 30.5049H26.4786L26.6873 34.7814L28.7453 30.5049H29.9589L30.1676 34.7814L32.2256 30.5049H33.4199Z" fill="#FDDB00"/>
<path d="M38.4169 35.9575H37.2507L38.4075 30.5049H39.5737L38.4169 35.9575Z" fill="#FDDB00"/>
<path d="M40.3323 35.9575H39.1662L40.323 30.5049H41.4891L40.3323 35.9575Z" fill="#FDDB00"/>
<path d="M48.3929 35.9575H47.4542C47.018 35.9575 46.7149 35.915 46.5437 35.8294C46.3731 35.7438 46.2875 35.5719 46.2875 35.3126C46.2875 35.167 46.3093 34.9964 46.3537 34.8008L47.2643 30.5049H48.4304L48.1367 31.861H49.2653L49.0472 32.8472H47.938L47.6061 34.4027C47.5742 34.5608 47.5586 34.6651 47.5586 34.7158C47.5586 34.8233 47.5949 34.8926 47.6674 34.9245C47.7398 34.9564 47.8867 34.972 48.1086 34.972H48.6016L48.3929 35.9575Z" fill="#FDDB00"/>
<path d="M24.5562 31.9841C24.3856 31.8953 24.0819 31.8516 23.6456 31.8516H21.977C21.4965 31.8516 21.1315 31.9416 20.8815 32.1215C20.6315 32.3015 20.4628 32.6002 20.3741 33.0177L20.0041 34.7913C19.9785 34.8988 19.9597 34.995 19.9472 35.0807C19.9347 35.1663 19.9285 35.2438 19.9285 35.3131C19.9285 35.44 19.9472 35.5425 19.9853 35.6212C20.0235 35.7006 20.0866 35.765 20.1747 35.8156C20.2634 35.8662 20.3834 35.9006 20.5353 35.92C20.6872 35.9387 20.8765 35.9487 21.104 35.9487H23.9394L24.1481 34.9719H21.7589C21.5377 34.9719 21.3908 34.9544 21.3177 34.92C21.2452 34.885 21.209 34.8144 21.209 34.7063C21.209 34.6307 21.2215 34.5295 21.2471 34.4032L21.2477 34.4001H21.7408L21.7402 34.4032H24.4524L24.7462 33.019C24.7905 32.8165 24.8124 32.6427 24.8124 32.4971C24.8124 32.2434 24.7268 32.0728 24.5562 31.9841ZM23.5319 33.4158H22.2283V33.4146H21.4552C21.4802 33.2889 21.5102 33.1877 21.5452 33.1121C21.5802 33.0365 21.6239 32.9777 21.6783 32.9365C21.7321 32.8952 21.8014 32.8683 21.887 32.8559C21.9727 32.8434 22.0783 32.8371 22.2045 32.8371H23.1338C23.4375 32.8371 23.5888 32.9321 23.5888 33.1215C23.5888 33.1408 23.57 33.2389 23.5319 33.4158Z" fill="#FDDB00"/>
<path d="M37.0845 32.1828C37.0433 32.101 36.977 32.036 36.8852 31.9885C36.7939 31.941 36.6733 31.9078 36.5252 31.8891C36.3765 31.8704 36.1915 31.8604 35.9702 31.8604H33.1442L32.9355 32.8465H35.3253C35.5465 32.8465 35.6934 32.8621 35.7665 32.894C35.839 32.9259 35.8759 32.9953 35.8759 33.1027C35.8759 33.1534 35.8602 33.2571 35.8284 33.4146H34.8941V33.4158H33.9792C33.7073 33.4158 33.4811 33.4302 33.3011 33.4583C33.1211 33.4865 32.9705 33.5421 32.8505 33.6239C32.7305 33.7064 32.6355 33.8233 32.5662 33.9752C32.4968 34.127 32.4337 34.3258 32.3768 34.5726L32.3293 34.8001C32.2849 34.9963 32.2631 35.1669 32.2631 35.3119C32.2631 35.4444 32.2837 35.5525 32.3249 35.6344C32.3662 35.7169 32.4324 35.7813 32.5243 35.8288C32.6155 35.8763 32.7361 35.9094 32.8849 35.9281C33.0336 35.9469 33.218 35.9569 33.4398 35.9569H36.4552L37.0814 33.0171C37.1251 32.8215 37.1476 32.6509 37.1476 32.5053C37.1464 32.3728 37.1258 32.2653 37.0845 32.1828ZM33.7423 34.9713C33.5717 34.9713 33.4861 34.8988 33.4861 34.7532C33.4861 34.6645 33.5205 34.5839 33.5904 34.5114C33.6598 34.4389 33.7517 34.402 33.8654 34.402H35.1266L35.1272 34.3989H35.6184L35.4965 34.9707H33.7423V34.9713Z" fill="#FDDB00"/>
<path d="M45.8612 31.9841C45.6906 31.8953 45.3869 31.8516 44.9507 31.8516H43.2814C42.8008 31.8516 42.4359 31.9416 42.1859 32.1215C41.9359 32.3015 41.7672 32.6002 41.6784 33.0177L41.3085 34.7913C41.2828 34.8988 41.2641 34.995 41.2516 35.0807C41.2391 35.1663 41.2328 35.2438 41.2328 35.3131C41.2328 35.44 41.2516 35.5425 41.2897 35.6212C41.3278 35.7006 41.391 35.765 41.4791 35.8156C41.5678 35.8662 41.6878 35.9006 41.8397 35.92C41.9915 35.9387 42.1809 35.9487 42.409 35.9487H45.2444L45.4531 34.9719H43.0633C42.8421 34.9719 42.6946 34.9544 42.6221 34.92C42.5496 34.885 42.5127 34.8144 42.5127 34.7063C42.5127 34.6307 42.5252 34.5295 42.5509 34.4032L42.5515 34.4001H43.0446L43.0439 34.4032H45.7562L46.0499 33.019C46.0943 32.8165 46.1162 32.6427 46.1162 32.4971C46.1168 32.2434 46.0318 32.0728 45.8612 31.9841ZM44.8369 33.4158H43.6089V33.4146H42.7602C42.7852 33.2889 42.8152 33.1877 42.8502 33.1121C42.8846 33.0365 42.929 32.9777 42.9827 32.9365C43.0364 32.8952 43.1058 32.8683 43.1914 32.8559C43.277 32.8434 43.3827 32.8371 43.5089 32.8371H44.4382C44.7413 32.8371 44.8932 32.9321 44.8932 33.1215C44.8938 33.1408 44.875 33.2389 44.8369 33.4158Z" fill="#FDDB00"/>
</g>
<rect x="0.5" y="0.5" width="69" height="47" rx="3.5" stroke="#E5E6EA"/>
<defs>
<clipPath id="clip0_1113_299">
<rect width="70" height="48" rx="4" fill="white"/>
</clipPath>
</defs>
</svg>
