<svg width="70" height="48" viewBox="0 0 70 48" fill="none" xmlns="http://www.w3.org/2000/svg">
    <g clip-path="url(#clip0_3966_427)">
        <rect width="70" height="48" rx="4" fill="white"/>
        <rect width="70" height="48" rx="6" fill="white"/>
        <g clip-path="url(#clip1_3966_427)">
            <path fill-rule="evenodd" clip-rule="evenodd" d="M52.706 19.8462V25.3828H53.6265V27.2332H52.9721C52.2298 27.2332 51.5788 26.8512 51.2 26.2741C50.5757 26.8669 49.7502 27.2322 48.8412 27.2322C46.8999 27.2322 45.3251 25.5811 45.3251 23.5439C45.3251 21.5067 46.8989 19.8556 48.8412 19.8556C49.5905 19.8556 50.2835 20.1029 50.8533 20.5214V19.8462H52.706ZM47.1734 23.5428C47.1734 24.5594 47.9968 25.3828 49.0134 25.3828C50.0299 25.3828 50.8533 24.5594 50.8533 23.5428C50.8533 22.5263 50.0299 21.7029 49.0134 21.7029C47.9968 21.7029 47.1734 22.5263 47.1734 23.5428ZM40.9417 19.8462C38.9045 19.8462 37.2482 21.5036 37.2482 23.5397V30H39.0975V26.7354C39.6413 27.0506 40.2696 27.2333 40.9417 27.2333C42.9789 27.2333 44.6352 25.5759 44.6352 23.5397C44.6352 21.5036 42.9779 19.8462 40.9417 19.8462ZM40.9417 25.3839C39.9252 25.3839 39.0975 24.5563 39.0975 23.5397C39.0975 22.5232 39.9252 21.6956 40.9417 21.6956C41.9582 21.6956 42.7859 22.5232 42.7859 23.5397C42.7859 24.5563 41.9593 25.3839 40.9417 25.3839ZM59.2413 19.8483L57.2741 24.4373L55.406 19.8483H53.4084L56.2503 26.8283L54.8904 30H56.9034L61.2543 19.8483H59.2413Z" fill="#00CF6A"/>
            <path fill-rule="evenodd" clip-rule="evenodd" d="M15.537 18.525C15.6987 18.8485 15.6643 19.2294 15.4472 19.5185L11.0492 25.3828H15.6591V27.2322H9.24685C8.88574 27.2322 8.56012 27.0318 8.39835 26.7083C8.23659 26.3847 8.27103 26.0038 8.48811 25.7147L12.8871 19.8494H8.27625V18H14.6874C15.0496 18 15.3752 18.2014 15.537 18.525ZM28.4867 23.5398C28.4867 21.5036 30.144 19.8463 32.1802 19.8463C34.2164 19.8463 35.8737 21.5036 35.8737 23.5398C35.8737 25.576 34.2164 27.2333 32.1802 27.2333C30.144 27.2333 28.4867 25.576 28.4867 23.5398ZM30.3361 23.5398C30.3361 24.5563 31.1637 25.3839 32.1802 25.3839C33.1978 25.3839 34.0244 24.5563 34.0244 23.5398C34.0244 22.5233 33.1978 21.6956 32.1802 21.6956C31.1626 21.6956 30.3361 22.5233 30.3361 23.5398ZM23.7318 25.3829V19.8463H21.8793V20.5215C21.3095 20.103 20.6165 19.8557 19.8671 19.8557C17.9249 19.8557 16.351 21.5067 16.351 23.544C16.351 25.5812 17.9259 27.2322 19.8671 27.2322C20.7762 27.2322 21.6017 26.867 22.2258 26.2742C22.6047 26.8513 23.2559 27.2333 23.9979 27.2333H24.6523V25.3829H23.7318ZM20.0393 25.3829C19.0228 25.3829 18.1994 24.5595 18.1994 23.5429C18.1994 22.5264 19.0228 21.703 20.0393 21.703C21.0558 21.703 21.8793 22.5264 21.8793 23.5429C21.8793 24.5595 21.0558 25.3829 20.0393 25.3829ZM27.2072 25.3808V18H25.3536V25.1115C25.3536 26.2825 26.3023 27.2322 27.4733 27.2322H28.134V25.3808H27.2072Z" fill="#0033C9"/>
        </g>
    </g>
    <rect x="0.5" y="0.5" width="69" height="47" rx="3.5" stroke="#E5E6EA"/>
    <defs>
        <clipPath id="clip0_3966_427">
            <rect width="70" height="48" rx="4" fill="white"/>
        </clipPath>
        <clipPath id="clip1_3966_427">
            <rect width="53.5714" height="12" fill="white" transform="translate(8 18)"/>
        </clipPath>
    </defs>
</svg>
